solid CATIA STL
  facet normal  0.000000e+000  0.000000e+000 -1.000000e+000
    outer loop
      vertex  1.480000e+001  5.030000e+001  1.150000e+001
      vertex  1.630000e+001 -3.299998e+000  1.150000e+001
      vertex  1.480000e+001 -1.799998e+000  1.150000e+001
    endloop
  endfacet
  facet normal  0.000000e+000  -0.000000e+000 -1.000000e+000
    outer loop
      vertex  1.480000e+001 -1.799998e+000  1.150000e+001
      vertex  1.630000e+001 -3.299998e+000  1.150000e+001
      vertex  1.037315e+001 -3.299999e+000  1.150000e+001
    endloop
  endfacet
  facet normal  0.000000e+000  0.000000e+000 -1.000000e+000
    outer loop
      vertex  1.480000e+001 -1.799998e+000  1.150000e+001
      vertex  1.037315e+001 -3.299999e+000  1.150000e+001
      vertex  1.037315e+001 -1.799999e+000  1.150000e+001
    endloop
  endfacet
  facet normal  0.000000e+000  0.000000e+000 -1.000000e+000
    outer loop
      vertex  1.630000e+001 -3.299998e+000  1.150000e+001
      vertex  1.480000e+001  5.030000e+001  1.150000e+001
      vertex  1.630000e+001  5.180000e+001  1.150000e+001
    endloop
  endfacet
  facet normal  0.000000e+000  0.000000e+000 -1.000000e+000
    outer loop
      vertex  1.630000e+001  5.180000e+001  1.150000e+001
      vertex  1.480000e+001  5.030000e+001  1.150000e+001
      vertex -1.480000e+001  5.030000e+001  1.150000e+001
    endloop
  endfacet
  facet normal  0.000000e+000  0.000000e+000 -1.000000e+000
    outer loop
      vertex  1.630000e+001  5.180000e+001  1.150000e+001
      vertex -1.480000e+001  5.030000e+001  1.150000e+001
      vertex -1.630000e+001  5.180000e+001  1.150000e+001
    endloop
  endfacet
  facet normal  0.000000e+000  0.000000e+000 -1.000000e+000
    outer loop
      vertex -1.630000e+001  5.180000e+001  1.150000e+001
      vertex -1.480000e+001  5.030000e+001  1.150000e+001
      vertex -1.480000e+001 -1.800002e+000  1.150000e+001
    endloop
  endfacet
  facet normal  -0.000000e+000  0.000000e+000 -1.000000e+000
    outer loop
      vertex -1.630000e+001  5.180000e+001  1.150000e+001
      vertex -1.480000e+001 -1.800002e+000  1.150000e+001
      vertex -1.630000e+001 -3.300002e+000  1.150000e+001
    endloop
  endfacet
  facet normal  0.000000e+000  0.000000e+000 -1.000000e+000
    outer loop
      vertex -1.630000e+001 -3.300002e+000  1.150000e+001
      vertex -1.480000e+001 -1.800002e+000  1.150000e+001
      vertex -1.031476e+001 -1.800001e+000  1.150000e+001
    endloop
  endfacet
  facet normal  0.000000e+000  -0.000000e+000 -1.000000e+000
    outer loop
      vertex -1.630000e+001 -3.300002e+000  1.150000e+001
      vertex -1.031476e+001 -1.800001e+000  1.150000e+001
      vertex -1.031476e+001 -3.300001e+000  1.150000e+001
    endloop
  endfacet
  facet normal  1.195034e-007 -1.000000e+000  0.000000e+000
    outer loop
      vertex -1.630000e+001 -3.300002e+000  1.150000e+001
      vertex -1.031476e+001 -3.300001e+000  1.150000e+001
      vertex -1.630000e+001 -3.300002e+000  1.700000e+001
    endloop
  endfacet
  facet normal  1.195034e-007 -1.000000e+000  0.000000e+000
    outer loop
      vertex -1.630000e+001 -3.300002e+000  1.700000e+001
      vertex -1.031476e+001 -3.300001e+000  1.150000e+001
      vertex -1.031476e+001 -3.300001e+000  1.512352e+001
    endloop
  endfacet
  facet normal  1.316422e-007 -1.000000e+000  3.871785e-008
    outer loop
      vertex -1.630000e+001 -3.300002e+000  1.700000e+001
      vertex -1.031476e+001 -3.300001e+000  1.512352e+001
      vertex  1.630000e+001 -3.299998e+000  1.700000e+001
    endloop
  endfacet
  facet normal  1.382945e-007 -1.000000e+000 -5.563365e-008
    outer loop
      vertex  1.630000e+001 -3.299998e+000  1.700000e+001
      vertex -1.031476e+001 -3.300001e+000  1.512352e+001
      vertex  1.037315e+001 -3.299999e+000  1.512352e+001
    endloop
  endfacet
  facet normal  1.206805e-007 -1.000000e+000  0.000000e+000
    outer loop
      vertex  1.630000e+001 -3.299998e+000  1.700000e+001
      vertex  1.037315e+001 -3.299999e+000  1.512352e+001
      vertex  1.630000e+001 -3.299998e+000  1.150000e+001
    endloop
  endfacet
  facet normal  1.206805e-007 -1.000000e+000  0.000000e+000
    outer loop
      vertex  1.630000e+001 -3.299998e+000  1.150000e+001
      vertex  1.037315e+001 -3.299999e+000  1.512352e+001
      vertex  1.037315e+001 -3.299999e+000  1.150000e+001
    endloop
  endfacet
  facet normal -1.328908e-007  1.000000e+000  0.000000e+000
    outer loop
      vertex -1.031476e+001 -1.800001e+000  1.150000e+001
      vertex -1.480000e+001 -1.800002e+000  1.150000e+001
      vertex -1.031476e+001 -1.800001e+000  1.500000e+001
    endloop
  endfacet
  facet normal -1.328908e-007  1.000000e+000  0.000000e+000
    outer loop
      vertex -1.031476e+001 -1.800001e+000  1.500000e+001
      vertex -1.480000e+001 -1.800002e+000  1.150000e+001
      vertex -1.480000e+001 -1.800002e+000  1.500000e+001
    endloop
  endfacet
  facet normal -1.346433e-007  1.000000e+000  0.000000e+000
    outer loop
      vertex  1.480000e+001 -1.799998e+000  1.150000e+001
      vertex  1.037315e+001 -1.799999e+000  1.150000e+001
      vertex  1.480000e+001 -1.799998e+000  1.500000e+001
    endloop
  endfacet
  facet normal -1.346433e-007  1.000000e+000  0.000000e+000
    outer loop
      vertex  1.480000e+001 -1.799998e+000  1.500000e+001
      vertex  1.037315e+001 -1.799999e+000  1.150000e+001
      vertex  1.037315e+001 -1.799999e+000  1.500000e+001
    endloop
  endfacet
  facet normal  -0.000000e+000  0.000000e+000 -9.999999e-001
    outer loop
      vertex -1.480000e+001  5.030000e+001  1.500000e+001
      vertex -1.031476e+001 -1.800001e+000  1.500000e+001
      vertex -1.480000e+001 -1.800002e+000  1.500000e+001
    endloop
  endfacet
  facet normal  0.000000e+000  0.000000e+000 -1.000000e+000
    outer loop
      vertex -1.031476e+001 -1.800001e+000  1.500000e+001
      vertex -1.480000e+001  5.030000e+001  1.500000e+001
      vertex -1.031476e+001  0.000000e+000  1.500000e+001
    endloop
  endfacet
  facet normal  0.000000e+000  0.000000e+000 -1.000000e+000
    outer loop
      vertex -1.031476e+001  0.000000e+000  1.500000e+001
      vertex -1.480000e+001  5.030000e+001  1.500000e+001
      vertex  1.480000e+001  5.030000e+001  1.500000e+001
    endloop
  endfacet
  facet normal  0.000000e+000  0.000000e+000 -1.000000e+000
    outer loop
      vertex -1.031476e+001  0.000000e+000  1.500000e+001
      vertex  1.480000e+001  5.030000e+001  1.500000e+001
      vertex  1.037315e+001  0.000000e+000  1.500000e+001
    endloop
  endfacet
  facet normal  0.000000e+000  0.000000e+000 -9.999999e-001
    outer loop
      vertex  1.037315e+001  0.000000e+000  1.500000e+001
      vertex  1.480000e+001  5.030000e+001  1.500000e+001
      vertex  1.480000e+001 -1.799998e+000  1.500000e+001
    endloop
  endfacet
  facet normal  -0.000000e+000  0.000000e+000 -9.999999e-001
    outer loop
      vertex  1.037315e+001  0.000000e+000  1.500000e+001
      vertex  1.480000e+001 -1.799998e+000  1.500000e+001
      vertex  1.037315e+001 -1.799999e+000  1.500000e+001
    endloop
  endfacet
  facet normal  0.000000e+000  0.000000e+000 -1.000000e+000
    outer loop
      vertex  1.037315e+001 -3.299999e+000  1.512352e+001
      vertex -1.031476e+001 -3.300001e+000  1.512352e+001
      vertex  1.037315e+001  0.000000e+000  1.512352e+001
    endloop
  endfacet
  facet normal  -0.000000e+000  0.000000e+000 -1.000000e+000
    outer loop
      vertex  1.037315e+001  0.000000e+000  1.512352e+001
      vertex -1.031476e+001 -3.300001e+000  1.512352e+001
      vertex -1.031476e+001  0.000000e+000  1.512352e+001
    endloop
  endfacet
  facet normal -1.000000e+000  0.000000e+000  0.000000e+000
    outer loop
      vertex  1.037315e+001 -3.299999e+000  1.150000e+001
      vertex  1.037315e+001 -3.299999e+000  1.512352e+001
      vertex  1.037315e+001 -1.799999e+000  1.150000e+001
    endloop
  endfacet
  facet normal -1.000000e+000  0.000000e+000  0.000000e+000
    outer loop
      vertex  1.037315e+001 -1.799999e+000  1.150000e+001
      vertex  1.037315e+001 -3.299999e+000  1.512352e+001
      vertex  1.037315e+001 -1.799999e+000  1.500000e+001
    endloop
  endfacet
  facet normal -1.000000e+000  -0.000000e+000  0.000000e+000
    outer loop
      vertex  1.037315e+001 -3.299999e+000  1.512352e+001
      vertex  1.037315e+001  0.000000e+000  1.512352e+001
      vertex  1.037315e+001 -1.799999e+000  1.500000e+001
    endloop
  endfacet
  facet normal -9.999999e-001  0.000000e+000  0.000000e+000
    outer loop
      vertex  1.037315e+001 -1.799999e+000  1.500000e+001
      vertex  1.037315e+001  0.000000e+000  1.512352e+001
      vertex  1.037315e+001  0.000000e+000  1.500000e+001
    endloop
  endfacet
  facet normal  1.000000e+000  -0.000000e+000  0.000000e+000
    outer loop
      vertex -1.031476e+001  0.000000e+000  1.512352e+001
      vertex -1.031476e+001 -3.300001e+000  1.512352e+001
      vertex -1.031476e+001  0.000000e+000  1.500000e+001
    endloop
  endfacet
  facet normal  1.000000e+000  0.000000e+000  0.000000e+000
    outer loop
      vertex -1.031476e+001  0.000000e+000  1.500000e+001
      vertex -1.031476e+001 -3.300001e+000  1.512352e+001
      vertex -1.031476e+001 -1.800001e+000  1.500000e+001
    endloop
  endfacet
  facet normal  1.000000e+000  0.000000e+000  0.000000e+000
    outer loop
      vertex -1.031476e+001 -3.300001e+000  1.512352e+001
      vertex -1.031476e+001 -3.300001e+000  1.150000e+001
      vertex -1.031476e+001 -1.800001e+000  1.500000e+001
    endloop
  endfacet
  facet normal  1.000000e+000  0.000000e+000  0.000000e+000
    outer loop
      vertex -1.031476e+001 -1.800001e+000  1.500000e+001
      vertex -1.031476e+001 -3.300001e+000  1.150000e+001
      vertex -1.031476e+001 -1.800001e+000  1.150000e+001
    endloop
  endfacet
  facet normal  0.000000e+000 -1.000000e+000  -0.000000e+000
    outer loop
      vertex  1.037315e+001  0.000000e+000  1.500000e+001
      vertex  1.037315e+001  0.000000e+000  1.512352e+001
      vertex -1.031476e+001  0.000000e+000  1.500000e+001
    endloop
  endfacet
  facet normal  0.000000e+000 -1.000000e+000  0.000000e+000
    outer loop
      vertex -1.031476e+001  0.000000e+000  1.500000e+001
      vertex  1.037315e+001  0.000000e+000  1.512352e+001
      vertex -1.031476e+001  0.000000e+000  1.512352e+001
    endloop
  endfacet
  facet normal -1.170153e-007  1.000000e+000  0.000000e+000
    outer loop
      vertex -1.630000e+001  5.180000e+001  1.150000e+001
      vertex -1.630000e+001  5.180000e+001  1.700000e+001
      vertex  1.630000e+001  5.180000e+001  1.150000e+001
    endloop
  endfacet
  facet normal -1.170153e-007  1.000000e+000  0.000000e+000
    outer loop
      vertex  1.630000e+001  5.180000e+001  1.150000e+001
      vertex -1.630000e+001  5.180000e+001  1.700000e+001
      vertex  1.630000e+001  5.180000e+001  1.700000e+001
    endloop
  endfacet
  facet normal  1.000000e+000  1.384645e-007  0.000000e+000
    outer loop
      vertex  1.630000e+001 -3.299998e+000  1.150000e+001
      vertex  1.630000e+001  5.180000e+001  1.150000e+001
      vertex  1.630000e+001 -3.299998e+000  1.700000e+001
    endloop
  endfacet
  facet normal  1.000000e+000  1.384645e-007  0.000000e+000
    outer loop
      vertex  1.630000e+001 -3.299998e+000  1.700000e+001
      vertex  1.630000e+001  5.180000e+001  1.150000e+001
      vertex  1.630000e+001  5.180000e+001  1.700000e+001
    endloop
  endfacet
  facet normal -1.000000e+000 -1.384645e-007  0.000000e+000
    outer loop
      vertex -1.630000e+001  5.180000e+001  1.150000e+001
      vertex -1.630000e+001 -3.300002e+000  1.150000e+001
      vertex -1.630000e+001  5.180000e+001  1.700000e+001
    endloop
  endfacet
  facet normal -1.000000e+000 -1.384645e-007  0.000000e+000
    outer loop
      vertex -1.630000e+001  5.180000e+001  1.700000e+001
      vertex -1.630000e+001 -3.300002e+000  1.150000e+001
      vertex -1.630000e+001 -3.300002e+000  1.700000e+001
    endloop
  endfacet
  facet normal  0.000000e+000  0.000000e+000  1.000000e+000
    outer loop
      vertex  1.630000e+001 -3.299998e+000  1.700000e+001
      vertex  1.630000e+001  5.180000e+001  1.700000e+001
      vertex -1.630000e+001 -3.300002e+000  1.700000e+001
    endloop
  endfacet
  facet normal  0.000000e+000  -0.000000e+000  1.000000e+000
    outer loop
      vertex -1.630000e+001 -3.300002e+000  1.700000e+001
      vertex  1.630000e+001  5.180000e+001  1.700000e+001
      vertex -1.630000e+001  5.180000e+001  1.700000e+001
    endloop
  endfacet
  facet normal  1.288749e-007 -1.000000e+000  0.000000e+000
    outer loop
      vertex -1.480000e+001  5.030000e+001  1.150000e+001
      vertex  1.480000e+001  5.030000e+001  1.150000e+001
      vertex -1.480000e+001  5.030000e+001  1.500000e+001
    endloop
  endfacet
  facet normal  1.288749e-007 -1.000000e+000  0.000000e+000
    outer loop
      vertex -1.480000e+001  5.030000e+001  1.500000e+001
      vertex  1.480000e+001  5.030000e+001  1.150000e+001
      vertex  1.480000e+001  5.030000e+001  1.500000e+001
    endloop
  endfacet
  facet normal  1.000000e+000  1.281328e-007  0.000000e+000
    outer loop
      vertex -1.480000e+001  5.030000e+001  1.150000e+001
      vertex -1.480000e+001  5.030000e+001  1.500000e+001
      vertex -1.480000e+001 -1.800002e+000  1.150000e+001
    endloop
  endfacet
  facet normal  1.000000e+000  1.281328e-007  -0.000000e+000
    outer loop
      vertex -1.480000e+001 -1.800002e+000  1.150000e+001
      vertex -1.480000e+001  5.030000e+001  1.500000e+001
      vertex -1.480000e+001 -1.800002e+000  1.500000e+001
    endloop
  endfacet
  facet normal -1.000000e+000 -1.281328e-007  -0.000000e+000
    outer loop
      vertex  1.480000e+001 -1.799998e+000  1.150000e+001
      vertex  1.480000e+001 -1.799998e+000  1.500000e+001
      vertex  1.480000e+001  5.030000e+001  1.150000e+001
    endloop
  endfacet
  facet normal -1.000000e+000 -1.281328e-007  0.000000e+000
    outer loop
      vertex  1.480000e+001  5.030000e+001  1.150000e+001
      vertex  1.480000e+001 -1.799998e+000  1.500000e+001
      vertex  1.480000e+001  5.030000e+001  1.500000e+001
    endloop
  endfacet
endsolid CATIA STL
