solid CATIA STL
  facet normal  0.000000e+000  1.000000e+000  0.000000e+000
    outer loop
      vertex  1.450000e+001  5.000000e+001 -2.000000e+000
      vertex -1.450000e+001  5.000000e+001 -2.000000e+000
      vertex  8.892524e-001  5.000000e+001  3.556799e+000
    endloop
  endfacet
  facet normal  -0.000000e+000  9.999999e-001  0.000000e+000
    outer loop
      vertex  1.450000e+001  5.000000e+001 -2.000000e+000
      vertex  8.892524e-001  5.000000e+001  3.556799e+000
      vertex  1.300000e+000  5.000000e+001  3.748334e+000
    endloop
  endfacet
  facet normal  -0.000000e+000  1.000000e+000  0.000000e+000
    outer loop
      vertex  1.450000e+001  5.000000e+001 -2.000000e+000
      vertex  1.300000e+000  5.000000e+001  3.748334e+000
      vertex  1.671248e+000  5.000000e+001  4.008285e+000
    endloop
  endfacet
  facet normal  -0.000000e+000  1.000000e+000  0.000000e+000
    outer loop
      vertex  1.450000e+001  5.000000e+001 -2.000000e+000
      vertex  1.671248e+000  5.000000e+001  4.008285e+000
      vertex  1.991716e+000  5.000000e+001  4.328752e+000
    endloop
  endfacet
  facet normal  -0.000000e+000  1.000000e+000  0.000000e+000
    outer loop
      vertex  1.450000e+001  5.000000e+001 -2.000000e+000
      vertex  1.991716e+000  5.000000e+001  4.328752e+000
      vertex  2.251666e+000  5.000000e+001  4.700000e+000
    endloop
  endfacet
  facet normal  -0.000000e+000  9.999999e-001  0.000000e+000
    outer loop
      vertex  1.450000e+001  5.000000e+001 -2.000000e+000
      vertex  2.251666e+000  5.000000e+001  4.700000e+000
      vertex  2.443201e+000  5.000000e+001  5.110748e+000
    endloop
  endfacet
  facet normal  -0.000000e+000  1.000000e+000  0.000000e+000
    outer loop
      vertex  1.450000e+001  5.000000e+001 -2.000000e+000
      vertex  2.443201e+000  5.000000e+001  5.110748e+000
      vertex  2.560500e+000  5.000000e+001  5.548515e+000
    endloop
  endfacet
  facet normal  -0.000000e+000  1.000000e+000  0.000000e+000
    outer loop
      vertex  1.450000e+001  5.000000e+001 -2.000000e+000
      vertex  2.560500e+000  5.000000e+001  5.548515e+000
      vertex  2.600000e+000  5.000000e+001  6.000000e+000
    endloop
  endfacet
  facet normal  -0.000000e+000  1.000000e+000  -0.000000e+000
    outer loop
      vertex  1.450000e+001  5.000000e+001 -2.000000e+000
      vertex  2.600000e+000  5.000000e+001  6.000000e+000
      vertex  2.560500e+000  5.000000e+001  6.451485e+000
    endloop
  endfacet
  facet normal  -0.000000e+000  1.000000e+000  -0.000000e+000
    outer loop
      vertex  1.450000e+001  5.000000e+001 -2.000000e+000
      vertex  2.560500e+000  5.000000e+001  6.451485e+000
      vertex  2.443201e+000  5.000000e+001  6.889252e+000
    endloop
  endfacet
  facet normal  -0.000000e+000  1.000000e+000  -0.000000e+000
    outer loop
      vertex  1.450000e+001  5.000000e+001 -2.000000e+000
      vertex  2.443201e+000  5.000000e+001  6.889252e+000
      vertex  2.251666e+000  5.000000e+001  7.300000e+000
    endloop
  endfacet
  facet normal  -0.000000e+000  1.000000e+000  -0.000000e+000
    outer loop
      vertex  1.450000e+001  5.000000e+001 -2.000000e+000
      vertex  2.251666e+000  5.000000e+001  7.300000e+000
      vertex  1.991716e+000  5.000000e+001  7.671248e+000
    endloop
  endfacet
  facet normal  -0.000000e+000  1.000000e+000  -0.000000e+000
    outer loop
      vertex  1.450000e+001  5.000000e+001 -2.000000e+000
      vertex  1.991716e+000  5.000000e+001  7.671248e+000
      vertex  1.671248e+000  5.000000e+001  7.991715e+000
    endloop
  endfacet
  facet normal  0.000000e+000  1.000000e+000  -0.000000e+000
    outer loop
      vertex  1.450000e+001  5.000000e+001  1.500000e+001
      vertex  1.450000e+001  5.000000e+001 -2.000000e+000
      vertex  1.671248e+000  5.000000e+001  7.991715e+000
    endloop
  endfacet
  facet normal  0.000000e+000  1.000000e+000  -0.000000e+000
    outer loop
      vertex  1.450000e+001  5.000000e+001  1.500000e+001
      vertex  1.671248e+000  5.000000e+001  7.991715e+000
      vertex  1.300000e+000  5.000000e+001  8.251666e+000
    endloop
  endfacet
  facet normal  0.000000e+000  1.000000e+000  -0.000000e+000
    outer loop
      vertex  1.450000e+001  5.000000e+001  1.500000e+001
      vertex  1.300000e+000  5.000000e+001  8.251666e+000
      vertex  8.892524e-001  5.000000e+001  8.443201e+000
    endloop
  endfacet
  facet normal  0.000000e+000  1.000000e+000  -0.000000e+000
    outer loop
      vertex  1.450000e+001  5.000000e+001  1.500000e+001
      vertex  8.892524e-001  5.000000e+001  8.443201e+000
      vertex -1.450000e+001  5.000000e+001  1.500000e+001
    endloop
  endfacet
  facet normal  0.000000e+000  9.999999e-001  0.000000e+000
    outer loop
      vertex -1.450000e+001  5.000000e+001 -2.000000e+000
      vertex -1.450000e+001  5.000000e+001  1.500000e+001
      vertex -2.600000e+000  5.000000e+001  6.000000e+000
    endloop
  endfacet
  facet normal  0.000000e+000  1.000000e+000  0.000000e+000
    outer loop
      vertex -1.450000e+001  5.000000e+001 -2.000000e+000
      vertex -2.600000e+000  5.000000e+001  6.000000e+000
      vertex -2.560500e+000  5.000000e+001  5.548515e+000
    endloop
  endfacet
  facet normal  0.000000e+000  1.000000e+000  0.000000e+000
    outer loop
      vertex -1.450000e+001  5.000000e+001 -2.000000e+000
      vertex -2.560500e+000  5.000000e+001  5.548515e+000
      vertex -2.443201e+000  5.000000e+001  5.110748e+000
    endloop
  endfacet
  facet normal  0.000000e+000  9.999999e-001  0.000000e+000
    outer loop
      vertex -1.450000e+001  5.000000e+001 -2.000000e+000
      vertex -2.443201e+000  5.000000e+001  5.110748e+000
      vertex -2.251666e+000  5.000000e+001  4.700000e+000
    endloop
  endfacet
  facet normal  0.000000e+000  1.000000e+000  0.000000e+000
    outer loop
      vertex -1.450000e+001  5.000000e+001 -2.000000e+000
      vertex -2.251666e+000  5.000000e+001  4.700000e+000
      vertex -1.991716e+000  5.000000e+001  4.328752e+000
    endloop
  endfacet
  facet normal  0.000000e+000  1.000000e+000  0.000000e+000
    outer loop
      vertex -1.450000e+001  5.000000e+001 -2.000000e+000
      vertex -1.991716e+000  5.000000e+001  4.328752e+000
      vertex -1.671248e+000  5.000000e+001  4.008285e+000
    endloop
  endfacet
  facet normal  0.000000e+000  1.000000e+000  0.000000e+000
    outer loop
      vertex -1.450000e+001  5.000000e+001 -2.000000e+000
      vertex -1.671248e+000  5.000000e+001  4.008285e+000
      vertex -1.300000e+000  5.000000e+001  3.748334e+000
    endloop
  endfacet
  facet normal  0.000000e+000  9.999999e-001  0.000000e+000
    outer loop
      vertex -1.450000e+001  5.000000e+001 -2.000000e+000
      vertex -1.300000e+000  5.000000e+001  3.748334e+000
      vertex -8.892524e-001  5.000000e+001  3.556799e+000
    endloop
  endfacet
  facet normal  0.000000e+000  1.000000e+000  0.000000e+000
    outer loop
      vertex -1.450000e+001  5.000000e+001 -2.000000e+000
      vertex -8.892524e-001  5.000000e+001  3.556799e+000
      vertex -4.514853e-001  5.000000e+001  3.439500e+000
    endloop
  endfacet
  facet normal  0.000000e+000  1.000000e+000  0.000000e+000
    outer loop
      vertex -1.450000e+001  5.000000e+001 -2.000000e+000
      vertex -4.514853e-001  5.000000e+001  3.439500e+000
      vertex  1.776357e-015  5.000000e+001  3.400000e+000
    endloop
  endfacet
  facet normal  -0.000000e+000  9.999999e-001  0.000000e+000
    outer loop
      vertex -1.450000e+001  5.000000e+001 -2.000000e+000
      vertex  1.776357e-015  5.000000e+001  3.400000e+000
      vertex  4.514853e-001  5.000000e+001  3.439500e+000
    endloop
  endfacet
  facet normal  -0.000000e+000  1.000000e+000  0.000000e+000
    outer loop
      vertex -1.450000e+001  5.000000e+001 -2.000000e+000
      vertex  4.514853e-001  5.000000e+001  3.439500e+000
      vertex  8.892524e-001  5.000000e+001  3.556799e+000
    endloop
  endfacet
  facet normal  0.000000e+000  1.000000e+000  0.000000e+000
    outer loop
      vertex -1.450000e+001  5.000000e+001  1.500000e+001
      vertex  8.892524e-001  5.000000e+001  8.443201e+000
      vertex  4.514853e-001  5.000000e+001  8.560500e+000
    endloop
  endfacet
  facet normal  0.000000e+000  1.000000e+000  0.000000e+000
    outer loop
      vertex -1.450000e+001  5.000000e+001  1.500000e+001
      vertex  4.514853e-001  5.000000e+001  8.560500e+000
      vertex -1.776357e-015  5.000000e+001  8.600000e+000
    endloop
  endfacet
  facet normal  0.000000e+000  1.000000e+000  0.000000e+000
    outer loop
      vertex -1.450000e+001  5.000000e+001  1.500000e+001
      vertex -1.776357e-015  5.000000e+001  8.600000e+000
      vertex -4.514853e-001  5.000000e+001  8.560500e+000
    endloop
  endfacet
  facet normal  0.000000e+000  1.000000e+000  0.000000e+000
    outer loop
      vertex -1.450000e+001  5.000000e+001  1.500000e+001
      vertex -4.514853e-001  5.000000e+001  8.560500e+000
      vertex -8.892524e-001  5.000000e+001  8.443201e+000
    endloop
  endfacet
  facet normal  0.000000e+000  1.000000e+000  0.000000e+000
    outer loop
      vertex -1.450000e+001  5.000000e+001  1.500000e+001
      vertex -8.892524e-001  5.000000e+001  8.443201e+000
      vertex -1.300000e+000  5.000000e+001  8.251666e+000
    endloop
  endfacet
  facet normal  0.000000e+000  1.000000e+000  0.000000e+000
    outer loop
      vertex -1.450000e+001  5.000000e+001  1.500000e+001
      vertex -1.300000e+000  5.000000e+001  8.251666e+000
      vertex -1.671248e+000  5.000000e+001  7.991715e+000
    endloop
  endfacet
  facet normal  0.000000e+000  9.999999e-001  0.000000e+000
    outer loop
      vertex -1.450000e+001  5.000000e+001  1.500000e+001
      vertex -1.671248e+000  5.000000e+001  7.991715e+000
      vertex -1.991716e+000  5.000000e+001  7.671248e+000
    endloop
  endfacet
  facet normal  0.000000e+000  1.000000e+000  0.000000e+000
    outer loop
      vertex -1.450000e+001  5.000000e+001  1.500000e+001
      vertex -1.991716e+000  5.000000e+001  7.671248e+000
      vertex -2.251666e+000  5.000000e+001  7.300000e+000
    endloop
  endfacet
  facet normal  0.000000e+000  1.000000e+000  0.000000e+000
    outer loop
      vertex -1.450000e+001  5.000000e+001  1.500000e+001
      vertex -2.251666e+000  5.000000e+001  7.300000e+000
      vertex -2.443201e+000  5.000000e+001  6.889252e+000
    endloop
  endfacet
  facet normal  0.000000e+000  1.000000e+000  0.000000e+000
    outer loop
      vertex -1.450000e+001  5.000000e+001  1.500000e+001
      vertex -2.443201e+000  5.000000e+001  6.889252e+000
      vertex -2.560500e+000  5.000000e+001  6.451485e+000
    endloop
  endfacet
  facet normal  0.000000e+000  9.999999e-001  0.000000e+000
    outer loop
      vertex -1.450000e+001  5.000000e+001  1.500000e+001
      vertex -2.560500e+000  5.000000e+001  6.451485e+000
      vertex -2.600000e+000  5.000000e+001  6.000000e+000
    endloop
  endfacet
  facet normal  0.000000e+000 -1.000000e+000  0.000000e+000
    outer loop
      vertex  9.000000e+000  4.850000e+001  9.750000e+000
      vertex  1.300000e+001  4.850000e+001  9.750000e+000
      vertex  1.300000e+001  4.850000e+001  1.500000e+001
    endloop
  endfacet
  facet normal  0.000000e+000 -9.999999e-001  0.000000e+000
    outer loop
      vertex  9.000000e+000  4.850000e+001  9.750000e+000
      vertex  1.300000e+001  4.850000e+001  1.500000e+001
      vertex -9.000000e+000  4.850000e+001  9.750000e+000
    endloop
  endfacet
  facet normal  0.000000e+000 -1.000000e+000  0.000000e+000
    outer loop
      vertex  9.000000e+000  4.850000e+001  9.750000e+000
      vertex -9.000000e+000  4.850000e+001  9.750000e+000
      vertex  4.514853e-001  4.850000e+001  8.560500e+000
    endloop
  endfacet
  facet normal  0.000000e+000 -1.000000e+000  0.000000e+000
    outer loop
      vertex  9.000000e+000  4.850000e+001  9.750000e+000
      vertex  4.514853e-001  4.850000e+001  8.560500e+000
      vertex  8.892524e-001  4.850000e+001  8.443201e+000
    endloop
  endfacet
  facet normal  0.000000e+000 -1.000000e+000  0.000000e+000
    outer loop
      vertex  9.000000e+000  4.850000e+001  9.750000e+000
      vertex  8.892524e-001  4.850000e+001  8.443201e+000
      vertex  1.300000e+000  4.850000e+001  8.251666e+000
    endloop
  endfacet
  facet normal  0.000000e+000 -1.000000e+000  0.000000e+000
    outer loop
      vertex  9.000000e+000  4.850000e+001  9.750000e+000
      vertex  1.300000e+000  4.850000e+001  8.251666e+000
      vertex  1.671248e+000  4.850000e+001  7.991715e+000
    endloop
  endfacet
  facet normal  0.000000e+000 -1.000000e+000  0.000000e+000
    outer loop
      vertex  9.000000e+000  4.850000e+001  9.750000e+000
      vertex  1.671248e+000  4.850000e+001  7.991715e+000
      vertex  1.991716e+000  4.850000e+001  7.671248e+000
    endloop
  endfacet
  facet normal  0.000000e+000 -1.000000e+000  0.000000e+000
    outer loop
      vertex  9.000000e+000  4.850000e+001  9.750000e+000
      vertex  1.991716e+000  4.850000e+001  7.671248e+000
      vertex  9.000000e+000  4.850000e+001  0.000000e+000
    endloop
  endfacet
  facet normal  0.000000e+000 -1.000000e+000  0.000000e+000
    outer loop
      vertex  9.000000e+000  4.850000e+001  0.000000e+000
      vertex  1.991716e+000  4.850000e+001  7.671248e+000
      vertex  2.251666e+000  4.850000e+001  7.300000e+000
    endloop
  endfacet
  facet normal  0.000000e+000 -1.000000e+000  0.000000e+000
    outer loop
      vertex  9.000000e+000  4.850000e+001  0.000000e+000
      vertex  2.251666e+000  4.850000e+001  7.300000e+000
      vertex  2.443201e+000  4.850000e+001  6.889252e+000
    endloop
  endfacet
  facet normal  0.000000e+000 -1.000000e+000  0.000000e+000
    outer loop
      vertex  9.000000e+000  4.850000e+001  0.000000e+000
      vertex  2.443201e+000  4.850000e+001  6.889252e+000
      vertex  2.560500e+000  4.850000e+001  6.451485e+000
    endloop
  endfacet
  facet normal  0.000000e+000 -1.000000e+000  0.000000e+000
    outer loop
      vertex  9.000000e+000  4.850000e+001  0.000000e+000
      vertex  2.560500e+000  4.850000e+001  6.451485e+000
      vertex  2.600000e+000  4.850000e+001  6.000000e+000
    endloop
  endfacet
  facet normal  0.000000e+000 -1.000000e+000  -0.000000e+000
    outer loop
      vertex  9.000000e+000  4.850000e+001  0.000000e+000
      vertex  2.600000e+000  4.850000e+001  6.000000e+000
      vertex  2.560500e+000  4.850000e+001  5.548515e+000
    endloop
  endfacet
  facet normal  0.000000e+000 -1.000000e+000  -0.000000e+000
    outer loop
      vertex  9.000000e+000  4.850000e+001  0.000000e+000
      vertex  2.560500e+000  4.850000e+001  5.548515e+000
      vertex  2.443201e+000  4.850000e+001  5.110748e+000
    endloop
  endfacet
  facet normal  0.000000e+000 -9.999999e-001  -0.000000e+000
    outer loop
      vertex  9.000000e+000  4.850000e+001  0.000000e+000
      vertex  2.443201e+000  4.850000e+001  5.110748e+000
      vertex  2.251666e+000  4.850000e+001  4.700000e+000
    endloop
  endfacet
  facet normal  0.000000e+000 -1.000000e+000  -0.000000e+000
    outer loop
      vertex  9.000000e+000  4.850000e+001  0.000000e+000
      vertex  2.251666e+000  4.850000e+001  4.700000e+000
      vertex  1.991716e+000  4.850000e+001  4.328752e+000
    endloop
  endfacet
  facet normal  0.000000e+000 -9.999999e-001  -0.000000e+000
    outer loop
      vertex  9.000000e+000  4.850000e+001  0.000000e+000
      vertex  1.991716e+000  4.850000e+001  4.328752e+000
      vertex  1.671248e+000  4.850000e+001  4.008285e+000
    endloop
  endfacet
  facet normal  0.000000e+000 -1.000000e+000  -0.000000e+000
    outer loop
      vertex  9.000000e+000  4.850000e+001  0.000000e+000
      vertex  1.671248e+000  4.850000e+001  4.008285e+000
      vertex  1.300000e+000  4.850000e+001  3.748334e+000
    endloop
  endfacet
  facet normal  0.000000e+000 -9.999999e-001  -0.000000e+000
    outer loop
      vertex  9.000000e+000  4.850000e+001  0.000000e+000
      vertex  1.300000e+000  4.850000e+001  3.748334e+000
      vertex  8.892524e-001  4.850000e+001  3.556799e+000
    endloop
  endfacet
  facet normal  0.000000e+000 -1.000000e+000  -0.000000e+000
    outer loop
      vertex  9.000000e+000  4.850000e+001  0.000000e+000
      vertex  8.892524e-001  4.850000e+001  3.556799e+000
      vertex -9.000000e+000  4.850000e+001  0.000000e+000
    endloop
  endfacet
  facet normal  0.000000e+000 -1.000000e+000  0.000000e+000
    outer loop
      vertex -9.000000e+000  4.850000e+001  0.000000e+000
      vertex  8.892524e-001  4.850000e+001  3.556799e+000
      vertex  4.514853e-001  4.850000e+001  3.439500e+000
    endloop
  endfacet
  facet normal  0.000000e+000 -1.000000e+000  0.000000e+000
    outer loop
      vertex -9.000000e+000  4.850000e+001  0.000000e+000
      vertex  4.514853e-001  4.850000e+001  3.439500e+000
      vertex -4.775965e-016  4.850000e+001  3.400000e+000
    endloop
  endfacet
  facet normal  -0.000000e+000 -9.999999e-001  0.000000e+000
    outer loop
      vertex -9.000000e+000  4.850000e+001  0.000000e+000
      vertex -4.775965e-016  4.850000e+001  3.400000e+000
      vertex -4.514853e-001  4.850000e+001  3.439500e+000
    endloop
  endfacet
  facet normal  -0.000000e+000 -1.000000e+000  0.000000e+000
    outer loop
      vertex -9.000000e+000  4.850000e+001  0.000000e+000
      vertex -4.514853e-001  4.850000e+001  3.439500e+000
      vertex -8.892524e-001  4.850000e+001  3.556799e+000
    endloop
  endfacet
  facet normal  -0.000000e+000 -9.999999e-001  0.000000e+000
    outer loop
      vertex -9.000000e+000  4.850000e+001  0.000000e+000
      vertex -8.892524e-001  4.850000e+001  3.556799e+000
      vertex -1.300000e+000  4.850000e+001  3.748334e+000
    endloop
  endfacet
  facet normal  -0.000000e+000 -1.000000e+000  0.000000e+000
    outer loop
      vertex -9.000000e+000  4.850000e+001  0.000000e+000
      vertex -1.300000e+000  4.850000e+001  3.748334e+000
      vertex -1.671248e+000  4.850000e+001  4.008285e+000
    endloop
  endfacet
  facet normal  -0.000000e+000 -9.999999e-001  0.000000e+000
    outer loop
      vertex -9.000000e+000  4.850000e+001  0.000000e+000
      vertex -1.671248e+000  4.850000e+001  4.008285e+000
      vertex -1.991716e+000  4.850000e+001  4.328752e+000
    endloop
  endfacet
  facet normal  -0.000000e+000 -1.000000e+000  0.000000e+000
    outer loop
      vertex -9.000000e+000  4.850000e+001  0.000000e+000
      vertex -1.991716e+000  4.850000e+001  4.328752e+000
      vertex -2.251666e+000  4.850000e+001  4.700000e+000
    endloop
  endfacet
  facet normal  -0.000000e+000 -1.000000e+000  0.000000e+000
    outer loop
      vertex -9.000000e+000  4.850000e+001  0.000000e+000
      vertex -2.251666e+000  4.850000e+001  4.700000e+000
      vertex -2.443201e+000  4.850000e+001  5.110748e+000
    endloop
  endfacet
  facet normal  -0.000000e+000 -1.000000e+000  0.000000e+000
    outer loop
      vertex -9.000000e+000  4.850000e+001  0.000000e+000
      vertex -2.443201e+000  4.850000e+001  5.110748e+000
      vertex -2.560500e+000  4.850000e+001  5.548515e+000
    endloop
  endfacet
  facet normal  -0.000000e+000 -1.000000e+000  0.000000e+000
    outer loop
      vertex -9.000000e+000  4.850000e+001  0.000000e+000
      vertex -2.560500e+000  4.850000e+001  5.548515e+000
      vertex -2.600000e+000  4.850000e+001  6.000000e+000
    endloop
  endfacet
  facet normal  -0.000000e+000 -9.999999e-001  0.000000e+000
    outer loop
      vertex -9.000000e+000  4.850000e+001  0.000000e+000
      vertex -2.600000e+000  4.850000e+001  6.000000e+000
      vertex -9.000000e+000  4.850000e+001  9.750000e+000
    endloop
  endfacet
  facet normal  0.000000e+000 -1.000000e+000  0.000000e+000
    outer loop
      vertex -9.000000e+000  4.850000e+001  9.750000e+000
      vertex -2.600000e+000  4.850000e+001  6.000000e+000
      vertex -2.560500e+000  4.850000e+001  6.451485e+000
    endloop
  endfacet
  facet normal  0.000000e+000 -1.000000e+000  0.000000e+000
    outer loop
      vertex -9.000000e+000  4.850000e+001  9.750000e+000
      vertex -2.560500e+000  4.850000e+001  6.451485e+000
      vertex -2.443201e+000  4.850000e+001  6.889252e+000
    endloop
  endfacet
  facet normal  0.000000e+000 -1.000000e+000  0.000000e+000
    outer loop
      vertex -9.000000e+000  4.850000e+001  9.750000e+000
      vertex -2.443201e+000  4.850000e+001  6.889252e+000
      vertex -2.251666e+000  4.850000e+001  7.300000e+000
    endloop
  endfacet
  facet normal  0.000000e+000 -1.000000e+000  0.000000e+000
    outer loop
      vertex -9.000000e+000  4.850000e+001  9.750000e+000
      vertex -2.251666e+000  4.850000e+001  7.300000e+000
      vertex -1.991716e+000  4.850000e+001  7.671248e+000
    endloop
  endfacet
  facet normal  0.000000e+000 -1.000000e+000  0.000000e+000
    outer loop
      vertex -9.000000e+000  4.850000e+001  9.750000e+000
      vertex -1.991716e+000  4.850000e+001  7.671248e+000
      vertex -1.671248e+000  4.850000e+001  7.991715e+000
    endloop
  endfacet
  facet normal  0.000000e+000 -1.000000e+000  0.000000e+000
    outer loop
      vertex -9.000000e+000  4.850000e+001  9.750000e+000
      vertex -1.671248e+000  4.850000e+001  7.991715e+000
      vertex -1.300000e+000  4.850000e+001  8.251666e+000
    endloop
  endfacet
  facet normal  0.000000e+000 -1.000000e+000  0.000000e+000
    outer loop
      vertex -9.000000e+000  4.850000e+001  9.750000e+000
      vertex -1.300000e+000  4.850000e+001  8.251666e+000
      vertex -8.892524e-001  4.850000e+001  8.443201e+000
    endloop
  endfacet
  facet normal  0.000000e+000 -1.000000e+000  0.000000e+000
    outer loop
      vertex -9.000000e+000  4.850000e+001  9.750000e+000
      vertex -8.892524e-001  4.850000e+001  8.443201e+000
      vertex -4.514853e-001  4.850000e+001  8.560500e+000
    endloop
  endfacet
  facet normal  0.000000e+000 -1.000000e+000  0.000000e+000
    outer loop
      vertex -9.000000e+000  4.850000e+001  9.750000e+000
      vertex -4.514853e-001  4.850000e+001  8.560500e+000
      vertex  1.591988e-016  4.850000e+001  8.600000e+000
    endloop
  endfacet
  facet normal  0.000000e+000 -1.000000e+000  0.000000e+000
    outer loop
      vertex -9.000000e+000  4.850000e+001  9.750000e+000
      vertex  1.591988e-016  4.850000e+001  8.600000e+000
      vertex  4.514853e-001  4.850000e+001  8.560500e+000
    endloop
  endfacet
  facet normal  0.000000e+000 -1.000000e+000  0.000000e+000
    outer loop
      vertex -1.300000e+001  4.850000e+001  1.500000e+001
      vertex -1.300000e+001  4.850000e+001  9.750000e+000
      vertex  1.300000e+001  4.850000e+001  1.500000e+001
    endloop
  endfacet
  facet normal  0.000000e+000 -1.000000e+000  0.000000e+000
    outer loop
      vertex  1.300000e+001  4.850000e+001  1.500000e+001
      vertex -1.300000e+001  4.850000e+001  9.750000e+000
      vertex -9.000000e+000  4.850000e+001  9.750000e+000
    endloop
  endfacet
  facet normal  8.715661e-002  0.000000e+000 -9.961947e-001
    outer loop
      vertex -1.776357e-015  5.000000e+001  8.600000e+000
      vertex -4.514853e-001  4.850000e+001  8.560500e+000
      vertex -4.514853e-001  5.000000e+001  8.560500e+000
    endloop
  endfacet
  facet normal  2.588185e-001  0.000000e+000 -9.659260e-001
    outer loop
      vertex -4.514853e-001  5.000000e+001  8.560500e+000
      vertex -4.514853e-001  4.850000e+001  8.560500e+000
      vertex -8.892524e-001  4.850000e+001  8.443201e+000
    endloop
  endfacet
  facet normal  2.588185e-001  0.000000e+000 -9.659260e-001
    outer loop
      vertex -4.514853e-001  5.000000e+001  8.560500e+000
      vertex -8.892524e-001  4.850000e+001  8.443201e+000
      vertex -8.892524e-001  5.000000e+001  8.443201e+000
    endloop
  endfacet
  facet normal  4.226187e-001  0.000000e+000 -9.063076e-001
    outer loop
      vertex -8.892524e-001  5.000000e+001  8.443201e+000
      vertex -8.892524e-001  4.850000e+001  8.443201e+000
      vertex -1.300000e+000  4.850000e+001  8.251666e+000
    endloop
  endfacet
  facet normal  4.226187e-001  0.000000e+000 -9.063076e-001
    outer loop
      vertex -8.892524e-001  5.000000e+001  8.443201e+000
      vertex -1.300000e+000  4.850000e+001  8.251666e+000
      vertex -1.300000e+000  5.000000e+001  8.251666e+000
    endloop
  endfacet
  facet normal  5.735765e-001  0.000000e+000 -8.191519e-001
    outer loop
      vertex -1.300000e+000  5.000000e+001  8.251666e+000
      vertex -1.300000e+000  4.850000e+001  8.251666e+000
      vertex -1.671248e+000  4.850000e+001  7.991715e+000
    endloop
  endfacet
  facet normal  5.735765e-001  0.000000e+000 -8.191519e-001
    outer loop
      vertex -1.300000e+000  5.000000e+001  8.251666e+000
      vertex -1.671248e+000  4.850000e+001  7.991715e+000
      vertex -1.671248e+000  5.000000e+001  7.991715e+000
    endloop
  endfacet
  facet normal  7.071065e-001  0.000000e+000 -7.071071e-001
    outer loop
      vertex -1.671248e+000  5.000000e+001  7.991715e+000
      vertex -1.671248e+000  4.850000e+001  7.991715e+000
      vertex -1.991716e+000  4.850000e+001  7.671248e+000
    endloop
  endfacet
  facet normal  7.071065e-001  0.000000e+000 -7.071071e-001
    outer loop
      vertex -1.671248e+000  5.000000e+001  7.991715e+000
      vertex -1.991716e+000  4.850000e+001  7.671248e+000
      vertex -1.991716e+000  5.000000e+001  7.671248e+000
    endloop
  endfacet
  facet normal  8.191520e-001  0.000000e+000 -5.735765e-001
    outer loop
      vertex -1.991716e+000  5.000000e+001  7.671248e+000
      vertex -1.991716e+000  4.850000e+001  7.671248e+000
      vertex -2.251666e+000  4.850000e+001  7.300000e+000
    endloop
  endfacet
  facet normal  8.191520e-001  0.000000e+000 -5.735765e-001
    outer loop
      vertex -1.991716e+000  5.000000e+001  7.671248e+000
      vertex -2.251666e+000  4.850000e+001  7.300000e+000
      vertex -2.251666e+000  5.000000e+001  7.300000e+000
    endloop
  endfacet
  facet normal  9.063079e-001  0.000000e+000 -4.226179e-001
    outer loop
      vertex -2.251666e+000  5.000000e+001  7.300000e+000
      vertex -2.251666e+000  4.850000e+001  7.300000e+000
      vertex -2.443201e+000  4.850000e+001  6.889252e+000
    endloop
  endfacet
  facet normal  9.063079e-001  0.000000e+000 -4.226179e-001
    outer loop
      vertex -2.251666e+000  5.000000e+001  7.300000e+000
      vertex -2.443201e+000  4.850000e+001  6.889252e+000
      vertex -2.443201e+000  5.000000e+001  6.889252e+000
    endloop
  endfacet
  facet normal  9.659258e-001  0.000000e+000 -2.588190e-001
    outer loop
      vertex -2.443201e+000  5.000000e+001  6.889252e+000
      vertex -2.443201e+000  4.850000e+001  6.889252e+000
      vertex -2.560500e+000  4.850000e+001  6.451485e+000
    endloop
  endfacet
  facet normal  9.659258e-001  0.000000e+000 -2.588190e-001
    outer loop
      vertex -2.443201e+000  5.000000e+001  6.889252e+000
      vertex -2.560500e+000  4.850000e+001  6.451485e+000
      vertex -2.560500e+000  5.000000e+001  6.451485e+000
    endloop
  endfacet
  facet normal  9.961947e-001  0.000000e+000 -8.715558e-002
    outer loop
      vertex -2.560500e+000  5.000000e+001  6.451485e+000
      vertex -2.560500e+000  4.850000e+001  6.451485e+000
      vertex -2.600000e+000  4.850000e+001  6.000000e+000
    endloop
  endfacet
  facet normal  9.961947e-001  0.000000e+000 -8.715558e-002
    outer loop
      vertex -2.560500e+000  5.000000e+001  6.451485e+000
      vertex -2.600000e+000  4.850000e+001  6.000000e+000
      vertex -2.600000e+000  5.000000e+001  6.000000e+000
    endloop
  endfacet
  facet normal  8.715661e-002  1.124643e-016 -9.961947e-001
    outer loop
      vertex -4.514853e-001  4.850000e+001  8.560500e+000
      vertex -1.776357e-015  5.000000e+001  8.600000e+000
      vertex  1.591988e-016  4.850000e+001  8.600000e+000
    endloop
  endfacet
  facet normal -8.715661e-002 -1.124643e-016 -9.961947e-001
    outer loop
      vertex  1.591988e-016  4.850000e+001  8.600000e+000
      vertex -1.776357e-015  5.000000e+001  8.600000e+000
      vertex  4.514853e-001  5.000000e+001  8.560500e+000
    endloop
  endfacet
  facet normal -8.715661e-002  -0.000000e+000 -9.961947e-001
    outer loop
      vertex  1.591988e-016  4.850000e+001  8.600000e+000
      vertex  4.514853e-001  5.000000e+001  8.560500e+000
      vertex  4.514853e-001  4.850000e+001  8.560500e+000
    endloop
  endfacet
  facet normal -2.588185e-001  0.000000e+000 -9.659260e-001
    outer loop
      vertex  4.514853e-001  4.850000e+001  8.560500e+000
      vertex  4.514853e-001  5.000000e+001  8.560500e+000
      vertex  8.892524e-001  5.000000e+001  8.443201e+000
    endloop
  endfacet
  facet normal -2.588185e-001  -0.000000e+000 -9.659260e-001
    outer loop
      vertex  4.514853e-001  4.850000e+001  8.560500e+000
      vertex  8.892524e-001  5.000000e+001  8.443201e+000
      vertex  8.892524e-001  4.850000e+001  8.443201e+000
    endloop
  endfacet
  facet normal -4.226187e-001  0.000000e+000 -9.063076e-001
    outer loop
      vertex  8.892524e-001  4.850000e+001  8.443201e+000
      vertex  8.892524e-001  5.000000e+001  8.443201e+000
      vertex  1.300000e+000  5.000000e+001  8.251666e+000
    endloop
  endfacet
  facet normal -4.226187e-001  -0.000000e+000 -9.063076e-001
    outer loop
      vertex  8.892524e-001  4.850000e+001  8.443201e+000
      vertex  1.300000e+000  5.000000e+001  8.251666e+000
      vertex  1.300000e+000  4.850000e+001  8.251666e+000
    endloop
  endfacet
  facet normal -5.735765e-001  0.000000e+000 -8.191519e-001
    outer loop
      vertex  1.300000e+000  4.850000e+001  8.251666e+000
      vertex  1.300000e+000  5.000000e+001  8.251666e+000
      vertex  1.671248e+000  5.000000e+001  7.991715e+000
    endloop
  endfacet
  facet normal -5.735765e-001  -0.000000e+000 -8.191519e-001
    outer loop
      vertex  1.300000e+000  4.850000e+001  8.251666e+000
      vertex  1.671248e+000  5.000000e+001  7.991715e+000
      vertex  1.671248e+000  4.850000e+001  7.991715e+000
    endloop
  endfacet
  facet normal -7.071065e-001  0.000000e+000 -7.071071e-001
    outer loop
      vertex  1.671248e+000  4.850000e+001  7.991715e+000
      vertex  1.671248e+000  5.000000e+001  7.991715e+000
      vertex  1.991716e+000  5.000000e+001  7.671248e+000
    endloop
  endfacet
  facet normal -7.071065e-001  -0.000000e+000 -7.071071e-001
    outer loop
      vertex  1.671248e+000  4.850000e+001  7.991715e+000
      vertex  1.991716e+000  5.000000e+001  7.671248e+000
      vertex  1.991716e+000  4.850000e+001  7.671248e+000
    endloop
  endfacet
  facet normal -8.191520e-001  0.000000e+000 -5.735765e-001
    outer loop
      vertex  1.991716e+000  4.850000e+001  7.671248e+000
      vertex  1.991716e+000  5.000000e+001  7.671248e+000
      vertex  2.251666e+000  5.000000e+001  7.300000e+000
    endloop
  endfacet
  facet normal -8.191520e-001  -0.000000e+000 -5.735765e-001
    outer loop
      vertex  1.991716e+000  4.850000e+001  7.671248e+000
      vertex  2.251666e+000  5.000000e+001  7.300000e+000
      vertex  2.251666e+000  4.850000e+001  7.300000e+000
    endloop
  endfacet
  facet normal -9.063079e-001  0.000000e+000 -4.226179e-001
    outer loop
      vertex  2.251666e+000  4.850000e+001  7.300000e+000
      vertex  2.251666e+000  5.000000e+001  7.300000e+000
      vertex  2.443201e+000  5.000000e+001  6.889252e+000
    endloop
  endfacet
  facet normal -9.063079e-001  -0.000000e+000 -4.226179e-001
    outer loop
      vertex  2.251666e+000  4.850000e+001  7.300000e+000
      vertex  2.443201e+000  5.000000e+001  6.889252e+000
      vertex  2.443201e+000  4.850000e+001  6.889252e+000
    endloop
  endfacet
  facet normal -9.659258e-001  0.000000e+000 -2.588190e-001
    outer loop
      vertex  2.443201e+000  4.850000e+001  6.889252e+000
      vertex  2.443201e+000  5.000000e+001  6.889252e+000
      vertex  2.560500e+000  5.000000e+001  6.451485e+000
    endloop
  endfacet
  facet normal -9.659258e-001  -0.000000e+000 -2.588190e-001
    outer loop
      vertex  2.443201e+000  4.850000e+001  6.889252e+000
      vertex  2.560500e+000  5.000000e+001  6.451485e+000
      vertex  2.560500e+000  4.850000e+001  6.451485e+000
    endloop
  endfacet
  facet normal -9.961947e-001  0.000000e+000 -8.715558e-002
    outer loop
      vertex  2.560500e+000  4.850000e+001  6.451485e+000
      vertex  2.560500e+000  5.000000e+001  6.451485e+000
      vertex  2.600000e+000  5.000000e+001  6.000000e+000
    endloop
  endfacet
  facet normal -9.961947e-001  -0.000000e+000 -8.715558e-002
    outer loop
      vertex  2.560500e+000  4.850000e+001  6.451485e+000
      vertex  2.600000e+000  5.000000e+001  6.000000e+000
      vertex  2.600000e+000  4.850000e+001  6.000000e+000
    endloop
  endfacet
  facet normal -8.715556e-002  0.000000e+000  9.961947e-001
    outer loop
      vertex  1.776357e-015  5.000000e+001  3.400000e+000
      vertex  4.514853e-001  4.850000e+001  3.439500e+000
      vertex  4.514853e-001  5.000000e+001  3.439500e+000
    endloop
  endfacet
  facet normal -2.588190e-001  0.000000e+000  9.659259e-001
    outer loop
      vertex  4.514853e-001  5.000000e+001  3.439500e+000
      vertex  4.514853e-001  4.850000e+001  3.439500e+000
      vertex  8.892524e-001  4.850000e+001  3.556799e+000
    endloop
  endfacet
  facet normal -2.588190e-001  0.000000e+000  9.659259e-001
    outer loop
      vertex  4.514853e-001  5.000000e+001  3.439500e+000
      vertex  8.892524e-001  4.850000e+001  3.556799e+000
      vertex  8.892524e-001  5.000000e+001  3.556799e+000
    endloop
  endfacet
  facet normal -4.226183e-001  0.000000e+000  9.063078e-001
    outer loop
      vertex  8.892524e-001  5.000000e+001  3.556799e+000
      vertex  8.892524e-001  4.850000e+001  3.556799e+000
      vertex  1.300000e+000  4.850000e+001  3.748334e+000
    endloop
  endfacet
  facet normal -4.226183e-001  0.000000e+000  9.063078e-001
    outer loop
      vertex  8.892524e-001  5.000000e+001  3.556799e+000
      vertex  1.300000e+000  4.850000e+001  3.748334e+000
      vertex  1.300000e+000  5.000000e+001  3.748334e+000
    endloop
  endfacet
  facet normal -5.735765e-001  0.000000e+000  8.191519e-001
    outer loop
      vertex  1.300000e+000  5.000000e+001  3.748334e+000
      vertex  1.300000e+000  4.850000e+001  3.748334e+000
      vertex  1.671248e+000  4.850000e+001  4.008285e+000
    endloop
  endfacet
  facet normal -5.735765e-001  0.000000e+000  8.191519e-001
    outer loop
      vertex  1.300000e+000  5.000000e+001  3.748334e+000
      vertex  1.671248e+000  4.850000e+001  4.008285e+000
      vertex  1.671248e+000  5.000000e+001  4.008285e+000
    endloop
  endfacet
  facet normal -7.071065e-001  0.000000e+000  7.071071e-001
    outer loop
      vertex  1.671248e+000  5.000000e+001  4.008285e+000
      vertex  1.671248e+000  4.850000e+001  4.008285e+000
      vertex  1.991716e+000  4.850000e+001  4.328752e+000
    endloop
  endfacet
  facet normal -7.071065e-001  0.000000e+000  7.071071e-001
    outer loop
      vertex  1.671248e+000  5.000000e+001  4.008285e+000
      vertex  1.991716e+000  4.850000e+001  4.328752e+000
      vertex  1.991716e+000  5.000000e+001  4.328752e+000
    endloop
  endfacet
  facet normal -8.191520e-001  0.000000e+000  5.735765e-001
    outer loop
      vertex  1.991716e+000  5.000000e+001  4.328752e+000
      vertex  1.991716e+000  4.850000e+001  4.328752e+000
      vertex  2.251666e+000  4.850000e+001  4.700000e+000
    endloop
  endfacet
  facet normal -8.191520e-001  0.000000e+000  5.735765e-001
    outer loop
      vertex  1.991716e+000  5.000000e+001  4.328752e+000
      vertex  2.251666e+000  4.850000e+001  4.700000e+000
      vertex  2.251666e+000  5.000000e+001  4.700000e+000
    endloop
  endfacet
  facet normal -9.063079e-001  0.000000e+000  4.226179e-001
    outer loop
      vertex  2.251666e+000  5.000000e+001  4.700000e+000
      vertex  2.251666e+000  4.850000e+001  4.700000e+000
      vertex  2.443201e+000  4.850000e+001  5.110748e+000
    endloop
  endfacet
  facet normal -9.063079e-001  0.000000e+000  4.226179e-001
    outer loop
      vertex  2.251666e+000  5.000000e+001  4.700000e+000
      vertex  2.443201e+000  4.850000e+001  5.110748e+000
      vertex  2.443201e+000  5.000000e+001  5.110748e+000
    endloop
  endfacet
  facet normal -9.659258e-001  0.000000e+000  2.588190e-001
    outer loop
      vertex  2.443201e+000  5.000000e+001  5.110748e+000
      vertex  2.443201e+000  4.850000e+001  5.110748e+000
      vertex  2.560500e+000  4.850000e+001  5.548515e+000
    endloop
  endfacet
  facet normal -9.659258e-001  0.000000e+000  2.588190e-001
    outer loop
      vertex  2.443201e+000  5.000000e+001  5.110748e+000
      vertex  2.560500e+000  4.850000e+001  5.548515e+000
      vertex  2.560500e+000  5.000000e+001  5.548515e+000
    endloop
  endfacet
  facet normal -9.961947e-001  0.000000e+000  8.715558e-002
    outer loop
      vertex  2.560500e+000  5.000000e+001  5.548515e+000
      vertex  2.560500e+000  4.850000e+001  5.548515e+000
      vertex  2.600000e+000  4.850000e+001  6.000000e+000
    endloop
  endfacet
  facet normal -9.961947e-001  0.000000e+000  8.715558e-002
    outer loop
      vertex  2.560500e+000  5.000000e+001  5.548515e+000
      vertex  2.600000e+000  4.850000e+001  6.000000e+000
      vertex  2.600000e+000  5.000000e+001  6.000000e+000
    endloop
  endfacet
  facet normal -8.715556e-002  1.309630e-016  9.961947e-001
    outer loop
      vertex  4.514853e-001  4.850000e+001  3.439500e+000
      vertex  1.776357e-015  5.000000e+001  3.400000e+000
      vertex -4.775965e-016  4.850000e+001  3.400000e+000
    endloop
  endfacet
  facet normal  8.715556e-002 -1.309630e-016  9.961947e-001
    outer loop
      vertex -4.775965e-016  4.850000e+001  3.400000e+000
      vertex  1.776357e-015  5.000000e+001  3.400000e+000
      vertex -4.514853e-001  5.000000e+001  3.439500e+000
    endloop
  endfacet
  facet normal  8.715556e-002  0.000000e+000  9.961947e-001
    outer loop
      vertex -4.775965e-016  4.850000e+001  3.400000e+000
      vertex -4.514853e-001  5.000000e+001  3.439500e+000
      vertex -4.514853e-001  4.850000e+001  3.439500e+000
    endloop
  endfacet
  facet normal  2.588190e-001  -0.000000e+000  9.659259e-001
    outer loop
      vertex -4.514853e-001  4.850000e+001  3.439500e+000
      vertex -4.514853e-001  5.000000e+001  3.439500e+000
      vertex -8.892524e-001  5.000000e+001  3.556799e+000
    endloop
  endfacet
  facet normal  2.588190e-001  0.000000e+000  9.659259e-001
    outer loop
      vertex -4.514853e-001  4.850000e+001  3.439500e+000
      vertex -8.892524e-001  5.000000e+001  3.556799e+000
      vertex -8.892524e-001  4.850000e+001  3.556799e+000
    endloop
  endfacet
  facet normal  4.226183e-001  -0.000000e+000  9.063078e-001
    outer loop
      vertex -8.892524e-001  4.850000e+001  3.556799e+000
      vertex -8.892524e-001  5.000000e+001  3.556799e+000
      vertex -1.300000e+000  5.000000e+001  3.748334e+000
    endloop
  endfacet
  facet normal  4.226183e-001  0.000000e+000  9.063078e-001
    outer loop
      vertex -8.892524e-001  4.850000e+001  3.556799e+000
      vertex -1.300000e+000  5.000000e+001  3.748334e+000
      vertex -1.300000e+000  4.850000e+001  3.748334e+000
    endloop
  endfacet
  facet normal  5.735765e-001  -0.000000e+000  8.191519e-001
    outer loop
      vertex -1.300000e+000  4.850000e+001  3.748334e+000
      vertex -1.300000e+000  5.000000e+001  3.748334e+000
      vertex -1.671248e+000  5.000000e+001  4.008285e+000
    endloop
  endfacet
  facet normal  5.735765e-001  0.000000e+000  8.191519e-001
    outer loop
      vertex -1.300000e+000  4.850000e+001  3.748334e+000
      vertex -1.671248e+000  5.000000e+001  4.008285e+000
      vertex -1.671248e+000  4.850000e+001  4.008285e+000
    endloop
  endfacet
  facet normal  7.071065e-001  -0.000000e+000  7.071071e-001
    outer loop
      vertex -1.671248e+000  4.850000e+001  4.008285e+000
      vertex -1.671248e+000  5.000000e+001  4.008285e+000
      vertex -1.991716e+000  5.000000e+001  4.328752e+000
    endloop
  endfacet
  facet normal  7.071065e-001  0.000000e+000  7.071071e-001
    outer loop
      vertex -1.671248e+000  4.850000e+001  4.008285e+000
      vertex -1.991716e+000  5.000000e+001  4.328752e+000
      vertex -1.991716e+000  4.850000e+001  4.328752e+000
    endloop
  endfacet
  facet normal  8.191520e-001  -0.000000e+000  5.735765e-001
    outer loop
      vertex -1.991716e+000  4.850000e+001  4.328752e+000
      vertex -1.991716e+000  5.000000e+001  4.328752e+000
      vertex -2.251666e+000  5.000000e+001  4.700000e+000
    endloop
  endfacet
  facet normal  8.191520e-001  0.000000e+000  5.735765e-001
    outer loop
      vertex -1.991716e+000  4.850000e+001  4.328752e+000
      vertex -2.251666e+000  5.000000e+001  4.700000e+000
      vertex -2.251666e+000  4.850000e+001  4.700000e+000
    endloop
  endfacet
  facet normal  9.063079e-001  -0.000000e+000  4.226179e-001
    outer loop
      vertex -2.251666e+000  4.850000e+001  4.700000e+000
      vertex -2.251666e+000  5.000000e+001  4.700000e+000
      vertex -2.443201e+000  5.000000e+001  5.110748e+000
    endloop
  endfacet
  facet normal  9.063079e-001  0.000000e+000  4.226179e-001
    outer loop
      vertex -2.251666e+000  4.850000e+001  4.700000e+000
      vertex -2.443201e+000  5.000000e+001  5.110748e+000
      vertex -2.443201e+000  4.850000e+001  5.110748e+000
    endloop
  endfacet
  facet normal  9.659258e-001  -0.000000e+000  2.588190e-001
    outer loop
      vertex -2.443201e+000  4.850000e+001  5.110748e+000
      vertex -2.443201e+000  5.000000e+001  5.110748e+000
      vertex -2.560500e+000  5.000000e+001  5.548515e+000
    endloop
  endfacet
  facet normal  9.659258e-001  0.000000e+000  2.588190e-001
    outer loop
      vertex -2.443201e+000  4.850000e+001  5.110748e+000
      vertex -2.560500e+000  5.000000e+001  5.548515e+000
      vertex -2.560500e+000  4.850000e+001  5.548515e+000
    endloop
  endfacet
  facet normal  9.961947e-001  -0.000000e+000  8.715558e-002
    outer loop
      vertex -2.560500e+000  4.850000e+001  5.548515e+000
      vertex -2.560500e+000  5.000000e+001  5.548515e+000
      vertex -2.600000e+000  5.000000e+001  6.000000e+000
    endloop
  endfacet
  facet normal  9.961947e-001  0.000000e+000  8.715558e-002
    outer loop
      vertex -2.560500e+000  4.850000e+001  5.548515e+000
      vertex -2.600000e+000  5.000000e+001  6.000000e+000
      vertex -2.600000e+000  4.850000e+001  6.000000e+000
    endloop
  endfacet
  facet normal  0.000000e+000 -1.000000e+000  -0.000000e+000
    outer loop
      vertex -2.668665e+000 -1.500000e+000  9.600000e+000
      vertex -4.236525e+000 -1.500000e+000  1.116786e+001
      vertex -1.450000e+001 -1.500000e+000 -2.000000e+000
    endloop
  endfacet
  facet normal  0.000000e+000 -1.000000e+000  0.000000e+000
    outer loop
      vertex -1.450000e+001 -1.500000e+000 -2.000000e+000
      vertex -4.236525e+000 -1.500000e+000  1.116786e+001
      vertex -4.236525e+000 -1.500000e+000  1.500000e+001
    endloop
  endfacet
  facet normal  -0.000000e+000 -1.000000e+000  0.000000e+000
    outer loop
      vertex -1.450000e+001 -1.500000e+000 -2.000000e+000
      vertex -4.236525e+000 -1.500000e+000  1.500000e+001
      vertex -1.450000e+001 -1.500000e+000  1.500000e+001
    endloop
  endfacet
  facet normal  0.000000e+000 -1.000000e+000  0.000000e+000
    outer loop
      vertex  4.236525e+000 -1.500000e+000  1.116786e+001
      vertex  2.668665e+000 -1.500000e+000  9.600000e+000
      vertex  1.450000e+001 -1.500000e+000 -2.000000e+000
    endloop
  endfacet
  facet normal  0.000000e+000 -1.000000e+000  0.000000e+000
    outer loop
      vertex  1.450000e+001 -1.500000e+000 -2.000000e+000
      vertex  2.668665e+000 -1.500000e+000  9.600000e+000
      vertex -2.668665e+000 -1.500000e+000  9.600000e+000
    endloop
  endfacet
  facet normal  0.000000e+000 -1.000000e+000  -0.000000e+000
    outer loop
      vertex  1.450000e+001 -1.500000e+000 -2.000000e+000
      vertex -2.668665e+000 -1.500000e+000  9.600000e+000
      vertex -1.450000e+001 -1.500000e+000 -2.000000e+000
    endloop
  endfacet
  facet normal  0.000000e+000 -1.000000e+000  0.000000e+000
    outer loop
      vertex  4.236525e+000 -1.500000e+000  1.500000e+001
      vertex  4.236525e+000 -1.500000e+000  1.116786e+001
      vertex  1.450000e+001 -1.500000e+000  1.500000e+001
    endloop
  endfacet
  facet normal  0.000000e+000 -1.000000e+000  -0.000000e+000
    outer loop
      vertex  1.450000e+001 -1.500000e+000  1.500000e+001
      vertex  4.236525e+000 -1.500000e+000  1.116786e+001
      vertex  1.450000e+001 -1.500000e+000 -2.000000e+000
    endloop
  endfacet
  facet normal  0.000000e+000  0.000000e+000  1.000000e+000
    outer loop
      vertex -4.236525e+000 -1.500000e+000  1.500000e+001
      vertex -4.236525e+000  2.247890e-015  1.500000e+001
      vertex -1.450000e+001 -1.500000e+000  1.500000e+001
    endloop
  endfacet
  facet normal  0.000000e+000  0.000000e+000  1.000000e+000
    outer loop
      vertex -1.450000e+001 -1.500000e+000  1.500000e+001
      vertex -4.236525e+000  2.247890e-015  1.500000e+001
      vertex -1.300000e+001  2.247890e-015  1.500000e+001
    endloop
  endfacet
  facet normal  0.000000e+000  0.000000e+000  1.000000e+000
    outer loop
      vertex -1.450000e+001 -1.500000e+000  1.500000e+001
      vertex -1.300000e+001  2.247890e-015  1.500000e+001
      vertex -1.450000e+001  5.000000e+001  1.500000e+001
    endloop
  endfacet
  facet normal  0.000000e+000  0.000000e+000  1.000000e+000
    outer loop
      vertex -1.450000e+001  5.000000e+001  1.500000e+001
      vertex -1.300000e+001  2.247890e-015  1.500000e+001
      vertex -1.300000e+001  4.850000e+001  1.500000e+001
    endloop
  endfacet
  facet normal  0.000000e+000  -0.000000e+000  1.000000e+000
    outer loop
      vertex -1.450000e+001  5.000000e+001  1.500000e+001
      vertex -1.300000e+001  4.850000e+001  1.500000e+001
      vertex  1.450000e+001  5.000000e+001  1.500000e+001
    endloop
  endfacet
  facet normal  0.000000e+000  0.000000e+000  1.000000e+000
    outer loop
      vertex  1.450000e+001  5.000000e+001  1.500000e+001
      vertex -1.300000e+001  4.850000e+001  1.500000e+001
      vertex  1.300000e+001  4.850000e+001  1.500000e+001
    endloop
  endfacet
  facet normal  -0.000000e+000  0.000000e+000  1.000000e+000
    outer loop
      vertex  1.450000e+001  5.000000e+001  1.500000e+001
      vertex  1.300000e+001  4.850000e+001  1.500000e+001
      vertex  1.450000e+001 -1.500000e+000  1.500000e+001
    endloop
  endfacet
  facet normal  0.000000e+000  0.000000e+000  1.000000e+000
    outer loop
      vertex  1.450000e+001 -1.500000e+000  1.500000e+001
      vertex  1.300000e+001  4.850000e+001  1.500000e+001
      vertex  1.300000e+001  1.645876e-014  1.500000e+001
    endloop
  endfacet
  facet normal  0.000000e+000  0.000000e+000  1.000000e+000
    outer loop
      vertex  1.450000e+001 -1.500000e+000  1.500000e+001
      vertex  1.300000e+001  1.645876e-014  1.500000e+001
      vertex  4.236525e+000 -1.500000e+000  1.500000e+001
    endloop
  endfacet
  facet normal  0.000000e+000  0.000000e+000  1.000000e+000
    outer loop
      vertex  4.236525e+000 -1.500000e+000  1.500000e+001
      vertex  1.300000e+001  1.645876e-014  1.500000e+001
      vertex  4.236525e+000  0.000000e+000  1.500000e+001
    endloop
  endfacet
  facet normal  2.782418e-015  1.000000e+000  0.000000e+000
    outer loop
      vertex -1.300000e+001  2.247890e-015  9.750000e+000
      vertex -1.300000e+001  2.247890e-015  1.500000e+001
      vertex -9.000000e+000 -8.881784e-015  9.750000e+000
    endloop
  endfacet
  facet normal  0.000000e+000  1.000000e+000 -2.119938e-015
    outer loop
      vertex -9.000000e+000 -8.881784e-015  9.750000e+000
      vertex -1.300000e+001  2.247890e-015  1.500000e+001
      vertex -4.236525e+000  2.247890e-015  1.500000e+001
    endloop
  endfacet
  facet normal -3.573242e-015  1.000000e+000  1.122166e-015
    outer loop
      vertex -9.000000e+000 -8.881784e-015  9.750000e+000
      vertex -4.236525e+000  2.247890e-015  1.500000e+001
      vertex -9.000000e+000  2.059334e-015  0.000000e+000
    endloop
  endfacet
  facet normal -3.958377e-017  1.000000e+000  0.000000e+000
    outer loop
      vertex -9.000000e+000  2.059334e-015  0.000000e+000
      vertex -4.236525e+000  2.247890e-015  1.500000e+001
      vertex -4.236525e+000  2.247890e-015  1.116786e+001
    endloop
  endfacet
  facet normal -1.183556e-017  1.000000e+000 -1.183556e-017
    outer loop
      vertex -9.000000e+000  2.059334e-015  0.000000e+000
      vertex -4.236525e+000  2.247890e-015  1.116786e+001
      vertex -2.668665e+000  2.247890e-015  9.600000e+000
    endloop
  endfacet
  facet normal -2.651853e-017  1.000000e+000 -2.151938e-018
    outer loop
      vertex -9.000000e+000  2.059334e-015  0.000000e+000
      vertex -2.668665e+000  2.247890e-015  9.600000e+000
      vertex  9.000000e+000  2.536667e-015  0.000000e+000
    endloop
  endfacet
  facet normal  0.000000e+000  1.000000e+000  3.008096e-017
    outer loop
      vertex  9.000000e+000  2.536667e-015  0.000000e+000
      vertex -2.668665e+000  2.247890e-015  9.600000e+000
      vertex  2.668665e+000  2.247890e-015  9.600000e+000
    endloop
  endfacet
  facet normal -1.812637e-017  1.000000e+000  1.812637e-017
    outer loop
      vertex  9.000000e+000  2.536667e-015  0.000000e+000
      vertex  2.668665e+000  2.247890e-015  9.600000e+000
      vertex  4.236525e+000  2.247890e-015  1.116786e+001
    endloop
  endfacet
  facet normal  2.685049e-015  1.000000e+000  1.171123e-015
    outer loop
      vertex  9.000000e+000  2.536667e-015  0.000000e+000
      vertex  4.236525e+000  2.247890e-015  1.116786e+001
      vertex  9.000000e+000 -8.881784e-015  9.750000e+000
    endloop
  endfacet
  facet normal  2.511061e-015  1.000000e+000  5.865886e-016
    outer loop
      vertex  9.000000e+000 -8.881784e-015  9.750000e+000
      vertex  4.236525e+000  2.247890e-015  1.116786e+001
      vertex  4.236525e+000  0.000000e+000  1.500000e+001
    endloop
  endfacet
  facet normal -6.335135e-015  1.000000e+000 -7.439817e-015
    outer loop
      vertex  9.000000e+000 -8.881784e-015  9.750000e+000
      vertex  4.236525e+000  0.000000e+000  1.500000e+001
      vertex  1.300000e+001  1.645876e-014  9.750000e+000
    endloop
  endfacet
  facet normal -1.878109e-015  1.000000e+000  0.000000e+000
    outer loop
      vertex  1.300000e+001  1.645876e-014  9.750000e+000
      vertex  4.236525e+000  0.000000e+000  1.500000e+001
      vertex  1.300000e+001  1.645876e-014  1.500000e+001
    endloop
  endfacet
  facet normal -1.000000e+000  0.000000e+000  0.000000e+000
    outer loop
      vertex  4.236525e+000  2.247890e-015  1.116786e+001
      vertex  4.236525e+000 -1.500000e+000  1.116786e+001
      vertex  4.236525e+000  0.000000e+000  1.500000e+001
    endloop
  endfacet
  facet normal -1.000000e+000  -0.000000e+000  0.000000e+000
    outer loop
      vertex  4.236525e+000  0.000000e+000  1.500000e+001
      vertex  4.236525e+000 -1.500000e+000  1.116786e+001
      vertex  4.236525e+000 -1.500000e+000  1.500000e+001
    endloop
  endfacet
  facet normal -7.071067e-001  0.000000e+000  7.071069e-001
    outer loop
      vertex  2.668665e+000  2.247890e-015  9.600000e+000
      vertex  2.668665e+000 -1.500000e+000  9.600000e+000
      vertex  4.236525e+000  2.247890e-015  1.116786e+001
    endloop
  endfacet
  facet normal -7.071067e-001  0.000000e+000  7.071069e-001
    outer loop
      vertex  4.236525e+000  2.247890e-015  1.116786e+001
      vertex  2.668665e+000 -1.500000e+000  9.600000e+000
      vertex  4.236525e+000 -1.500000e+000  1.116786e+001
    endloop
  endfacet
  facet normal  0.000000e+000  0.000000e+000  1.000000e+000
    outer loop
      vertex -2.668665e+000  2.247890e-015  9.600000e+000
      vertex -2.668665e+000 -1.500000e+000  9.600000e+000
      vertex  2.668665e+000  2.247890e-015  9.600000e+000
    endloop
  endfacet
  facet normal  0.000000e+000  0.000000e+000  1.000000e+000
    outer loop
      vertex  2.668665e+000  2.247890e-015  9.600000e+000
      vertex -2.668665e+000 -1.500000e+000  9.600000e+000
      vertex  2.668665e+000 -1.500000e+000  9.600000e+000
    endloop
  endfacet
  facet normal  7.071067e-001  -0.000000e+000  7.071069e-001
    outer loop
      vertex -4.236525e+000  2.247890e-015  1.116786e+001
      vertex -4.236525e+000 -1.500000e+000  1.116786e+001
      vertex -2.668665e+000  2.247890e-015  9.600000e+000
    endloop
  endfacet
  facet normal  7.071067e-001  0.000000e+000  7.071069e-001
    outer loop
      vertex -2.668665e+000  2.247890e-015  9.600000e+000
      vertex -4.236525e+000 -1.500000e+000  1.116786e+001
      vertex -2.668665e+000 -1.500000e+000  9.600000e+000
    endloop
  endfacet
  facet normal  1.000000e+000  -0.000000e+000  0.000000e+000
    outer loop
      vertex -4.236525e+000  2.247890e-015  1.500000e+001
      vertex -4.236525e+000 -1.500000e+000  1.500000e+001
      vertex -4.236525e+000  2.247890e-015  1.116786e+001
    endloop
  endfacet
  facet normal  1.000000e+000  0.000000e+000  0.000000e+000
    outer loop
      vertex -4.236525e+000  2.247890e-015  1.116786e+001
      vertex -4.236525e+000 -1.500000e+000  1.500000e+001
      vertex -4.236525e+000 -1.500000e+000  1.116786e+001
    endloop
  endfacet
  facet normal -1.000000e+000  0.000000e+000  0.000000e+000
    outer loop
      vertex  1.300000e+001  4.450000e+001  9.750000e+000
      vertex  1.300000e+001  4.450000e+001  0.000000e+000
      vertex  1.300000e+001  4.000000e+000  0.000000e+000
    endloop
  endfacet
  facet normal -1.000000e+000  0.000000e+000  0.000000e+000
    outer loop
      vertex  1.300000e+001  4.450000e+001  9.750000e+000
      vertex  1.300000e+001  4.000000e+000  0.000000e+000
      vertex  1.300000e+001  4.000000e+000  9.750000e+000
    endloop
  endfacet
  facet normal -9.999999e-001  0.000000e+000  0.000000e+000
    outer loop
      vertex  1.300000e+001  4.450000e+001  9.750000e+000
      vertex  1.300000e+001  4.000000e+000  9.750000e+000
      vertex  1.300000e+001  4.850000e+001  1.500000e+001
    endloop
  endfacet
  facet normal -1.000000e+000  0.000000e+000  -0.000000e+000
    outer loop
      vertex  1.300000e+001  4.450000e+001  9.750000e+000
      vertex  1.300000e+001  4.850000e+001  1.500000e+001
      vertex  1.300000e+001  4.850000e+001  9.750000e+000
    endloop
  endfacet
  facet normal -9.999999e-001  -0.000000e+000  0.000000e+000
    outer loop
      vertex  1.300000e+001  1.645876e-014  1.500000e+001
      vertex  1.300000e+001  4.850000e+001  1.500000e+001
      vertex  1.300000e+001  1.645876e-014  9.750000e+000
    endloop
  endfacet
  facet normal -1.000000e+000  0.000000e+000  0.000000e+000
    outer loop
      vertex  1.300000e+001  1.645876e-014  9.750000e+000
      vertex  1.300000e+001  4.850000e+001  1.500000e+001
      vertex  1.300000e+001  4.000000e+000  9.750000e+000
    endloop
  endfacet
  facet normal  1.000000e+000  0.000000e+000  0.000000e+000
    outer loop
      vertex -1.300000e+001  4.000000e+000  9.750000e+000
      vertex -1.300000e+001  4.000000e+000  0.000000e+000
      vertex -1.300000e+001  4.450000e+001  0.000000e+000
    endloop
  endfacet
  facet normal  1.000000e+000  0.000000e+000  -0.000000e+000
    outer loop
      vertex -1.300000e+001  4.000000e+000  9.750000e+000
      vertex -1.300000e+001  4.450000e+001  0.000000e+000
      vertex -1.300000e+001  4.450000e+001  9.750000e+000
    endloop
  endfacet
  facet normal  9.999999e-001  0.000000e+000  0.000000e+000
    outer loop
      vertex -1.300000e+001  4.000000e+000  9.750000e+000
      vertex -1.300000e+001  4.450000e+001  9.750000e+000
      vertex -1.300000e+001  2.247890e-015  1.500000e+001
    endloop
  endfacet
  facet normal  1.000000e+000  0.000000e+000  0.000000e+000
    outer loop
      vertex -1.300000e+001  4.000000e+000  9.750000e+000
      vertex -1.300000e+001  2.247890e-015  1.500000e+001
      vertex -1.300000e+001  2.247890e-015  9.750000e+000
    endloop
  endfacet
  facet normal  9.999999e-001  -0.000000e+000  0.000000e+000
    outer loop
      vertex -1.300000e+001  4.850000e+001  1.500000e+001
      vertex -1.300000e+001  2.247890e-015  1.500000e+001
      vertex -1.300000e+001  4.850000e+001  9.750000e+000
    endloop
  endfacet
  facet normal  1.000000e+000  0.000000e+000  0.000000e+000
    outer loop
      vertex -1.300000e+001  4.850000e+001  9.750000e+000
      vertex -1.300000e+001  2.247890e-015  1.500000e+001
      vertex -1.300000e+001  4.450000e+001  9.750000e+000
    endloop
  endfacet
  facet normal  0.000000e+000  0.000000e+000  1.000000e+000
    outer loop
      vertex -9.000000e+000  4.000000e+000  0.000000e+000
      vertex -9.000000e+000  2.059334e-015  0.000000e+000
      vertex  9.000000e+000  2.536667e-015  0.000000e+000
    endloop
  endfacet
  facet normal  0.000000e+000  0.000000e+000  1.000000e+000
    outer loop
      vertex -9.000000e+000  4.000000e+000  0.000000e+000
      vertex  9.000000e+000  2.536667e-015  0.000000e+000
      vertex -9.000000e+000  4.450000e+001  0.000000e+000
    endloop
  endfacet
  facet normal  0.000000e+000  0.000000e+000  1.000000e+000
    outer loop
      vertex -9.000000e+000  4.000000e+000  0.000000e+000
      vertex -9.000000e+000  4.450000e+001  0.000000e+000
      vertex -1.300000e+001  4.450000e+001  0.000000e+000
    endloop
  endfacet
  facet normal  0.000000e+000  0.000000e+000  1.000000e+000
    outer loop
      vertex -9.000000e+000  4.000000e+000  0.000000e+000
      vertex -1.300000e+001  4.450000e+001  0.000000e+000
      vertex -1.300000e+001  4.000000e+000  0.000000e+000
    endloop
  endfacet
  facet normal  0.000000e+000  0.000000e+000  1.000000e+000
    outer loop
      vertex  9.000000e+000  4.450000e+001  0.000000e+000
      vertex  9.000000e+000  4.850000e+001  0.000000e+000
      vertex -9.000000e+000  4.850000e+001  0.000000e+000
    endloop
  endfacet
  facet normal  0.000000e+000  0.000000e+000  1.000000e+000
    outer loop
      vertex  9.000000e+000  4.450000e+001  0.000000e+000
      vertex -9.000000e+000  4.850000e+001  0.000000e+000
      vertex  9.000000e+000  4.000000e+000  0.000000e+000
    endloop
  endfacet
  facet normal  0.000000e+000  0.000000e+000  1.000000e+000
    outer loop
      vertex  9.000000e+000  4.450000e+001  0.000000e+000
      vertex  9.000000e+000  4.000000e+000  0.000000e+000
      vertex  1.300000e+001  4.000000e+000  0.000000e+000
    endloop
  endfacet
  facet normal  0.000000e+000  -0.000000e+000  1.000000e+000
    outer loop
      vertex  9.000000e+000  4.450000e+001  0.000000e+000
      vertex  1.300000e+001  4.000000e+000  0.000000e+000
      vertex  1.300000e+001  4.450000e+001  0.000000e+000
    endloop
  endfacet
  facet normal  0.000000e+000  0.000000e+000  1.000000e+000
    outer loop
      vertex  9.000000e+000  2.536667e-015  0.000000e+000
      vertex  9.000000e+000  4.000000e+000  0.000000e+000
      vertex -9.000000e+000  4.450000e+001  0.000000e+000
    endloop
  endfacet
  facet normal  -0.000000e+000  0.000000e+000  1.000000e+000
    outer loop
      vertex -9.000000e+000  4.450000e+001  0.000000e+000
      vertex  9.000000e+000  4.000000e+000  0.000000e+000
      vertex -9.000000e+000  4.850000e+001  0.000000e+000
    endloop
  endfacet
  facet normal  0.000000e+000  0.000000e+000  1.000000e+000
    outer loop
      vertex  1.300000e+001  1.645876e-014  9.750000e+000
      vertex  1.300000e+001  4.000000e+000  9.750000e+000
      vertex  9.000000e+000 -8.881784e-015  9.750000e+000
    endloop
  endfacet
  facet normal  0.000000e+000  0.000000e+000  1.000000e+000
    outer loop
      vertex  9.000000e+000 -8.881784e-015  9.750000e+000
      vertex  1.300000e+001  4.000000e+000  9.750000e+000
      vertex  9.000000e+000  4.000000e+000  9.750000e+000
    endloop
  endfacet
  facet normal -1.000000e+000  0.000000e+000  0.000000e+000
    outer loop
      vertex  9.000000e+000  2.536667e-015  0.000000e+000
      vertex  9.000000e+000 -8.881784e-015  9.750000e+000
      vertex  9.000000e+000  4.000000e+000  0.000000e+000
    endloop
  endfacet
  facet normal -1.000000e+000  0.000000e+000  0.000000e+000
    outer loop
      vertex  9.000000e+000  4.000000e+000  0.000000e+000
      vertex  9.000000e+000 -8.881784e-015  9.750000e+000
      vertex  9.000000e+000  4.000000e+000  9.750000e+000
    endloop
  endfacet
  facet normal  0.000000e+000  1.000000e+000  0.000000e+000
    outer loop
      vertex  1.300000e+001  4.000000e+000  0.000000e+000
      vertex  9.000000e+000  4.000000e+000  0.000000e+000
      vertex  1.300000e+001  4.000000e+000  9.750000e+000
    endloop
  endfacet
  facet normal  0.000000e+000  1.000000e+000  0.000000e+000
    outer loop
      vertex  1.300000e+001  4.000000e+000  9.750000e+000
      vertex  9.000000e+000  4.000000e+000  0.000000e+000
      vertex  9.000000e+000  4.000000e+000  9.750000e+000
    endloop
  endfacet
  facet normal  -0.000000e+000  0.000000e+000  1.000000e+000
    outer loop
      vertex  1.300000e+001  4.850000e+001  9.750000e+000
      vertex  9.000000e+000  4.850000e+001  9.750000e+000
      vertex  1.300000e+001  4.450000e+001  9.750000e+000
    endloop
  endfacet
  facet normal  0.000000e+000  0.000000e+000  1.000000e+000
    outer loop
      vertex  1.300000e+001  4.450000e+001  9.750000e+000
      vertex  9.000000e+000  4.850000e+001  9.750000e+000
      vertex  9.000000e+000  4.450000e+001  9.750000e+000
    endloop
  endfacet
  facet normal  0.000000e+000 -1.000000e+000  -0.000000e+000
    outer loop
      vertex  1.300000e+001  4.450000e+001  0.000000e+000
      vertex  1.300000e+001  4.450000e+001  9.750000e+000
      vertex  9.000000e+000  4.450000e+001  0.000000e+000
    endloop
  endfacet
  facet normal  0.000000e+000 -1.000000e+000  0.000000e+000
    outer loop
      vertex  9.000000e+000  4.450000e+001  0.000000e+000
      vertex  1.300000e+001  4.450000e+001  9.750000e+000
      vertex  9.000000e+000  4.450000e+001  9.750000e+000
    endloop
  endfacet
  facet normal -1.000000e+000  0.000000e+000  0.000000e+000
    outer loop
      vertex  9.000000e+000  4.850000e+001  0.000000e+000
      vertex  9.000000e+000  4.450000e+001  0.000000e+000
      vertex  9.000000e+000  4.850000e+001  9.750000e+000
    endloop
  endfacet
  facet normal -1.000000e+000  -0.000000e+000  0.000000e+000
    outer loop
      vertex  9.000000e+000  4.850000e+001  9.750000e+000
      vertex  9.000000e+000  4.450000e+001  0.000000e+000
      vertex  9.000000e+000  4.450000e+001  9.750000e+000
    endloop
  endfacet
  facet normal  0.000000e+000  0.000000e+000  1.000000e+000
    outer loop
      vertex -1.300000e+001  2.247890e-015  9.750000e+000
      vertex -9.000000e+000 -8.881784e-015  9.750000e+000
      vertex -1.300000e+001  4.000000e+000  9.750000e+000
    endloop
  endfacet
  facet normal  -0.000000e+000  0.000000e+000  1.000000e+000
    outer loop
      vertex -1.300000e+001  4.000000e+000  9.750000e+000
      vertex -9.000000e+000 -8.881784e-015  9.750000e+000
      vertex -9.000000e+000  4.000000e+000  9.750000e+000
    endloop
  endfacet
  facet normal  0.000000e+000  1.000000e+000  0.000000e+000
    outer loop
      vertex -1.300000e+001  4.000000e+000  0.000000e+000
      vertex -1.300000e+001  4.000000e+000  9.750000e+000
      vertex -9.000000e+000  4.000000e+000  0.000000e+000
    endloop
  endfacet
  facet normal  0.000000e+000  1.000000e+000  -0.000000e+000
    outer loop
      vertex -9.000000e+000  4.000000e+000  0.000000e+000
      vertex -1.300000e+001  4.000000e+000  9.750000e+000
      vertex -9.000000e+000  4.000000e+000  9.750000e+000
    endloop
  endfacet
  facet normal  1.000000e+000  0.000000e+000  0.000000e+000
    outer loop
      vertex -9.000000e+000  2.059334e-015  0.000000e+000
      vertex -9.000000e+000  4.000000e+000  0.000000e+000
      vertex -9.000000e+000 -8.881784e-015  9.750000e+000
    endloop
  endfacet
  facet normal  1.000000e+000  -0.000000e+000  0.000000e+000
    outer loop
      vertex -9.000000e+000 -8.881784e-015  9.750000e+000
      vertex -9.000000e+000  4.000000e+000  0.000000e+000
      vertex -9.000000e+000  4.000000e+000  9.750000e+000
    endloop
  endfacet
  facet normal  0.000000e+000  0.000000e+000  1.000000e+000
    outer loop
      vertex -1.300000e+001  4.850000e+001  9.750000e+000
      vertex -1.300000e+001  4.450000e+001  9.750000e+000
      vertex -9.000000e+000  4.850000e+001  9.750000e+000
    endloop
  endfacet
  facet normal  0.000000e+000  0.000000e+000  1.000000e+000
    outer loop
      vertex -9.000000e+000  4.850000e+001  9.750000e+000
      vertex -1.300000e+001  4.450000e+001  9.750000e+000
      vertex -9.000000e+000  4.450000e+001  9.750000e+000
    endloop
  endfacet
  facet normal  1.000000e+000  0.000000e+000  0.000000e+000
    outer loop
      vertex -9.000000e+000  4.850000e+001  0.000000e+000
      vertex -9.000000e+000  4.850000e+001  9.750000e+000
      vertex -9.000000e+000  4.450000e+001  0.000000e+000
    endloop
  endfacet
  facet normal  1.000000e+000  0.000000e+000  0.000000e+000
    outer loop
      vertex -9.000000e+000  4.450000e+001  0.000000e+000
      vertex -9.000000e+000  4.850000e+001  9.750000e+000
      vertex -9.000000e+000  4.450000e+001  9.750000e+000
    endloop
  endfacet
  facet normal  0.000000e+000 -1.000000e+000  0.000000e+000
    outer loop
      vertex -1.300000e+001  4.450000e+001  0.000000e+000
      vertex -9.000000e+000  4.450000e+001  0.000000e+000
      vertex -1.300000e+001  4.450000e+001  9.750000e+000
    endloop
  endfacet
  facet normal  0.000000e+000 -1.000000e+000  0.000000e+000
    outer loop
      vertex -1.300000e+001  4.450000e+001  9.750000e+000
      vertex -9.000000e+000  4.450000e+001  0.000000e+000
      vertex -9.000000e+000  4.450000e+001  9.750000e+000
    endloop
  endfacet
  facet normal  1.000000e+000  0.000000e+000  0.000000e+000
    outer loop
      vertex  1.450000e+001 -1.500000e+000  1.500000e+001
      vertex  1.450000e+001 -1.500000e+000 -2.000000e+000
      vertex  1.450000e+001  5.000000e+001  1.500000e+001
    endloop
  endfacet
  facet normal  1.000000e+000  0.000000e+000  0.000000e+000
    outer loop
      vertex  1.450000e+001  5.000000e+001  1.500000e+001
      vertex  1.450000e+001 -1.500000e+000 -2.000000e+000
      vertex  1.450000e+001  5.000000e+001 -2.000000e+000
    endloop
  endfacet
  facet normal -1.000000e+000  0.000000e+000  0.000000e+000
    outer loop
      vertex -1.450000e+001  5.000000e+001  1.500000e+001
      vertex -1.450000e+001  5.000000e+001 -2.000000e+000
      vertex -1.450000e+001 -1.500000e+000  1.500000e+001
    endloop
  endfacet
  facet normal -1.000000e+000  0.000000e+000  0.000000e+000
    outer loop
      vertex -1.450000e+001 -1.500000e+000  1.500000e+001
      vertex -1.450000e+001  5.000000e+001 -2.000000e+000
      vertex -1.450000e+001 -1.500000e+000 -2.000000e+000
    endloop
  endfacet
  facet normal  0.000000e+000  0.000000e+000 -1.000000e+000
    outer loop
      vertex  1.450000e+001 -1.500000e+000 -2.000000e+000
      vertex -1.450000e+001 -1.500000e+000 -2.000000e+000
      vertex  1.450000e+001  5.000000e+001 -2.000000e+000
    endloop
  endfacet
  facet normal  -0.000000e+000  0.000000e+000 -1.000000e+000
    outer loop
      vertex  1.450000e+001  5.000000e+001 -2.000000e+000
      vertex -1.450000e+001 -1.500000e+000 -2.000000e+000
      vertex -1.450000e+001  5.000000e+001 -2.000000e+000
    endloop
  endfacet
endsolid CATIA STL
